<svg width="100" height="100" viewBox="0 0 100 100" fill="none" xmlns="http://www.w3.org/2000/svg">
<path d="M35.0259 52.9165C23.0026 58.3332 14.2838 69.5834 12.7605 83.3334C12.7605 87.9167 16.2309 91.6667 20.8334 91.6667H79.1667C83.7709 91.6667 87.2417 87.9167 87.2417 83.3334C85.7167 69.5834 76.9959 58.3332 64.9751 52.9165C62.2709 58.3332 56.5959 62.5 50.0001 62.5C43.4042 62.5 37.728 58.3332 35.0259 52.9165Z" fill="#2C3E50"/>
<path d="M70.8334 29.1666C70.8334 34.6919 68.6385 39.991 64.7315 43.898C60.8245 47.805 55.5254 49.9999 50.0001 49.9999C44.4747 49.9999 39.1757 47.805 35.2687 43.898C31.3617 39.991 29.1667 34.6919 29.1667 29.1666C29.1667 23.6412 31.3617 18.3422 35.2687 14.4352C39.1757 10.5282 44.4747 8.33325 50.0001 8.33325C55.5254 8.33325 60.8245 10.5282 64.7315 14.4352C68.6385 18.3422 70.8334 23.6412 70.8334 29.1666Z" fill="#34495E"/>
<path d="M50.0001 45.8333C44.6792 45.8333 39.6072 46.9541 35.0259 48.9583C23.0026 54.2166 14.2838 65.6124 12.7605 79.1666C12.7605 83.7708 16.2309 87.4999 20.8334 87.4999H79.1667C83.7709 87.4999 87.2417 83.7708 87.2417 79.1666C85.7167 65.6124 76.9959 54.2166 64.9751 48.9583C60.3917 46.9541 55.3209 45.8333 50.0001 45.8333Z" fill="#34495E"/>
</svg>
