<svg width="50" height="50" viewBox="0 0 50 50" fill="none" xmlns="http://www.w3.org/2000/svg">
<path d="M24.2188 35.8008L16.3184 49.5117L14.7461 43.8477L9.08203 46.4063L16.3184 33.5938H24.2188V35.8008Z" fill="#DB3429"/>
<path d="M25.7812 35.8008L33.6816 49.5117L35.2539 43.8477L40.918 46.4063L33.6816 33.5938H25.7812V35.8008Z" fill="#DB3429"/>
<path d="M24.2188 33.5938H16.3184L15.3711 35.2637C16.4941 35.8691 17.7539 36.1914 19.0234 36.1914C19.4141 36.1914 19.7949 36.1621 20.1855 36.1035C21.0645 36.8066 22.0996 37.3145 23.1934 37.5781L24.209 35.8105V33.5938H24.2188Z" fill="#B3271E"/>
<path d="M33.6816 33.5938H25.7812V35.8105L26.7969 37.5781C27.8906 37.3145 28.9258 36.8164 29.8047 36.1035C30.1855 36.1621 30.5762 36.1914 30.9668 36.1914C32.2461 36.1914 33.5059 35.8691 34.6191 35.2637L33.6816 33.5938Z" fill="#B3271E"/>
<path d="M40.8203 22.3926C41.8262 25.6152 39.8633 29.0039 36.5723 29.7266C35.8496 33.0176 32.4512 34.9805 29.2383 33.9648L29.2285 33.9746C26.9531 36.4551 23.0469 36.4551 20.7617 33.9746L20.752 33.9648C17.5391 34.9805 14.1504 33.0176 13.418 29.7266C10.127 29.0039 8.16406 25.6055 9.17969 22.3926L9.16992 22.3828C6.68945 20.1074 6.68945 16.2012 9.16992 13.9258L9.17969 13.916C8.16406 10.7031 10.127 7.31446 13.418 6.58203C14.1406 3.29102 17.5391 1.32813 20.752 2.34375L20.7617 2.33399C23.0469 -0.136717 26.9531 -0.136717 29.2285 2.34375L29.2383 2.35352C32.4512 1.33789 35.8398 3.30078 36.5723 6.5918C39.8633 7.31446 41.8262 10.7129 40.8105 13.9258L40.8203 13.9355C43.291 16.2012 43.291 20.1172 40.8203 22.3926Z" fill="#EBEAE0"/>
<path d="M37.0508 6.71875C36.8945 6.66992 36.7285 6.62109 36.5723 6.5918C35.8496 3.30078 32.4512 1.33789 29.2383 2.35352L29.2285 2.34375C26.9531 -0.136719 23.0469 -0.136719 20.7715 2.34375L20.7617 2.35352C17.5488 1.33789 14.1602 3.30078 13.4277 6.5918C10.1367 7.31445 8.17383 10.7129 9.18945 13.9258L9.17969 13.9355C6.69922 16.2109 6.69922 20.1172 9.17969 22.3926L9.18945 22.4023C8.17383 25.6152 10.1367 29.0039 13.4277 29.7363C13.4668 29.9023 13.5059 30.0586 13.5547 30.2148C25.332 27.7539 34.5996 18.4863 37.0508 6.71875Z" fill="#F5F4EF"/>
<path d="M37.6953 18.1641C37.6953 25.1758 32.0117 30.8594 25 30.8594C17.9883 30.8594 12.3047 25.1758 12.3047 18.1641C12.3047 11.1523 17.9883 5.46875 25 5.46875C32.0117 5.46875 37.6953 11.1523 37.6953 18.1641Z" fill="#EBEAE0"/>
<path d="M34.707 9.9707C25.4492 11.2891 18.1348 18.6035 16.8164 27.8613C19.0234 29.7266 21.8848 30.8496 25 30.8496C32.0117 30.8496 37.6953 25.166 37.6953 18.1543C37.6953 15.0391 36.5723 12.1875 34.707 9.9707Z" fill="#D7D5C1"/>
<path d="M25 16.5332C25.6738 16.5332 26.2402 17.2754 26.2402 18.1641C26.2402 19.0527 25.6738 19.7949 25 19.7949C24.3262 19.7949 23.7598 19.0527 23.7598 18.1641C23.7598 17.2754 24.3262 16.5332 25 16.5332ZM25 15.2344C23.5938 15.2344 22.4609 16.543 22.4609 18.1641C22.4609 19.7852 23.5938 21.0938 25 21.0938C26.4062 21.0938 27.5391 19.7852 27.5391 18.1641C27.5391 16.543 26.4062 15.2344 25 15.2344Z" fill="#E96B4E"/>
<path d="M21.0938 15.2344V21.0938H19.8242V17.1777L18.6035 18.5059L17.3828 17.1777V21.0938H16.1133V15.2344H17.334L18.6035 16.5625L19.873 15.2344H21.0938Z" fill="#E96B4E"/>
<path d="M28.9062 15.2344V21.0938H30.1758V17.1777L31.3965 18.5059L32.6172 17.1777V21.0938H33.8867V15.2344H32.666L31.3965 16.5625L30.127 15.2344H28.9062Z" fill="#E96B4E"/>
<path d="M25 36.3281C23.3594 36.3281 21.7773 35.6738 20.6152 34.5215C19.0332 34.9316 17.3438 34.707 15.918 33.8867C14.502 33.0664 13.457 31.709 13.0273 30.1367C11.4551 29.707 10.0977 28.6621 9.27734 27.2461C8.45703 25.8301 8.23242 24.1309 8.64258 22.5488C7.49023 21.3867 6.83594 19.8047 6.83594 18.1641C6.83594 16.5234 7.49023 14.9414 8.64258 13.7793C8.23242 12.1973 8.45703 10.5078 9.27734 9.08203C10.0977 7.66602 11.4551 6.62109 13.0273 6.19141C13.457 4.60938 14.502 3.26172 15.918 2.44141C17.334 1.62109 19.0332 1.39648 20.6152 1.80664C21.7773 0.654297 23.3594 0 25 0C26.6406 0 28.2227 0.654297 29.3848 1.80664C30.9668 1.39648 32.6562 1.62109 34.082 2.44141C35.498 3.26172 36.543 4.61914 36.9727 6.19141C38.5547 6.62109 39.9023 7.66602 40.7227 9.08203C41.543 10.498 41.7676 12.1973 41.3574 13.7793C42.5098 14.9414 43.1641 16.5234 43.1641 18.1641C43.1641 19.8047 42.5098 21.3867 41.3574 22.5488C41.7676 24.1309 41.543 25.8203 40.7227 27.2461C39.9023 28.6621 38.5449 29.707 36.9727 30.1367C36.543 31.709 35.498 33.0664 34.082 33.8867C32.666 34.707 30.9668 34.9316 29.3848 34.5215C28.2227 35.6738 26.6406 36.3281 25 36.3281ZM20.7617 33.4863C20.8984 33.4863 21.0254 33.5449 21.123 33.6426L21.1328 33.6523C22.1387 34.7461 23.5156 35.3516 25 35.3516C26.4844 35.3516 27.8613 34.7461 28.8672 33.6523C28.9941 33.5156 29.1992 33.457 29.3848 33.5059C30.791 33.9453 32.3242 33.7793 33.5938 33.0469C34.8633 32.3145 35.7812 31.0645 36.0938 29.6289C36.1328 29.4434 36.2793 29.2969 36.4551 29.2578C37.9004 28.9355 39.1406 28.0273 39.873 26.7578C40.6055 25.4883 40.7812 23.9551 40.332 22.5488C40.2734 22.373 40.332 22.1777 40.4688 22.041L40.4785 22.0312C41.5723 21.0254 42.1777 19.6484 42.1777 18.1641C42.1777 16.6797 41.5723 15.3027 40.4785 14.2969L40.4688 14.2871C40.332 14.1602 40.2734 13.9648 40.332 13.7793C40.7715 12.373 40.6055 10.8398 39.873 9.57031C39.1406 8.30078 37.8906 7.38281 36.4551 7.07031C36.2695 7.03125 36.123 6.88477 36.084 6.69922C35.7617 5.26367 34.8535 4.01367 33.584 3.28125C32.3145 2.54883 30.7812 2.37305 29.375 2.82227C29.1992 2.88086 29.0039 2.82227 28.8672 2.68555L28.8574 2.67578C27.8613 1.58203 26.4941 0.976562 25 0.976562C23.5059 0.976562 22.1387 1.58203 21.1328 2.67578C21.0059 2.8125 20.8008 2.87109 20.6152 2.82227C19.209 2.38281 17.6758 2.54883 16.4062 3.28125C15.1367 4.01367 14.2187 5.26367 13.9062 6.69922C13.8672 6.88477 13.7207 7.03125 13.5352 7.07031C12.0996 7.39258 10.8496 8.30078 10.1172 9.57031C9.38477 10.8398 9.20898 12.373 9.6582 13.7793C9.7168 13.9551 9.6582 14.1504 9.52148 14.2871L9.51172 14.2969C8.41797 15.3027 7.8125 16.6699 7.8125 18.1641C7.8125 19.6582 8.41797 21.0254 9.51172 22.0312C9.64844 22.1582 9.70703 22.3633 9.6582 22.5488C9.21875 23.9551 9.38477 25.4883 10.1172 26.7578C10.8496 28.0273 12.0996 28.9453 13.5352 29.2578C13.7207 29.2969 13.8672 29.4434 13.9062 29.6191C14.2285 31.0645 15.1367 32.3047 16.4062 33.0371C17.6758 33.7695 19.209 33.9453 20.6152 33.4961C20.6641 33.4961 20.7129 33.4863 20.7617 33.4863Z" fill="#57130F"/>
<path d="M25 31.3477C17.7344 31.3477 11.8164 25.4297 11.8164 18.1641C11.8164 15 12.959 11.9336 15.0293 9.54102C17.0801 7.17773 19.9023 5.60547 22.9785 5.13672L23.125 6.10352C17.2363 7.01172 12.793 12.1973 12.793 18.1641C12.793 24.8926 18.2715 30.3711 25 30.3711C31.7285 30.3711 37.207 24.8926 37.207 18.1641C37.207 11.4355 31.7285 5.95703 25 5.95703V4.98047C32.2656 4.98047 38.1836 10.8984 38.1836 18.1641C38.1836 25.4297 32.2656 31.3477 25 31.3477Z" fill="#57130F"/>
<path d="M16.3184 50C16.2989 50 16.2793 50 16.2598 50C16.0645 49.9707 15.8985 49.834 15.8497 49.6484L14.4239 44.5312L9.27739 46.8359C9.08207 46.9238 8.85747 46.875 8.72075 46.7187C8.57426 46.5625 8.55473 46.3379 8.65239 46.1523L15.8887 33.3203L16.7383 33.7988L10.2344 45.3418L14.5411 43.4082C14.668 43.3496 14.8243 43.3496 14.9512 43.4082C15.0782 43.4668 15.1758 43.584 15.2149 43.7207L16.4747 48.2617L23.7989 35.5469L24.6485 36.0352L16.7481 49.7559C16.6602 49.9121 16.4942 50 16.3184 50Z" fill="#57130F"/>
<path d="M33.6816 50C33.5059 50 33.3496 49.9121 33.2617 49.7559L25.3613 36.0352L26.2109 35.5469L33.5254 48.2617L34.7852 43.7207C34.8242 43.584 34.9219 43.4668 35.0488 43.4082C35.1758 43.3496 35.3223 43.3496 35.459 43.4082L39.7656 45.3418L34.3457 35.752L35.1953 35.2734L41.3477 46.1523C41.4551 46.3379 41.4258 46.5625 41.2793 46.7187C41.1328 46.875 40.9082 46.9238 40.7227 46.8359L35.5762 44.5312L34.1504 49.6484C34.1016 49.834 33.9355 49.9805 33.7402 50C33.7207 50 33.7012 50 33.6816 50Z" fill="#57130F"/>
<path d="M25 21.582C23.3301 21.582 21.9727 20.0488 21.9727 18.1641C21.9727 16.2793 23.3301 14.7461 25 14.7461C26.6699 14.7461 28.0273 16.2793 28.0273 18.1641C28.0273 20.0488 26.6699 21.582 25 21.582ZM25 15.7227C23.8672 15.7227 22.9492 16.8164 22.9492 18.1641C22.9492 19.5117 23.8672 20.6055 25 20.6055C26.1328 20.6055 27.0508 19.5117 27.0508 18.1641C27.0508 16.8164 26.1328 15.7227 25 15.7227ZM25 20.2832C24.0527 20.2832 23.2715 19.3359 23.2715 18.1641C23.2715 16.9922 24.043 16.0449 25 16.0449C25.957 16.0449 26.7285 16.9922 26.7285 18.1641C26.7285 19.3359 25.9473 20.2832 25 20.2832ZM25 17.0215C24.6484 17.0215 24.248 17.5098 24.248 18.1641C24.248 18.8184 24.6387 19.3066 25 19.3066C25.3613 19.3066 25.752 18.8184 25.752 18.1641C25.752 17.5098 25.3516 17.0215 25 17.0215Z" fill="#57130F"/>
<path d="M21.0938 21.582H19.8242C19.5508 21.582 19.3359 21.3672 19.3359 21.0938V18.4277L18.9648 18.8379C18.877 18.9355 18.7402 18.9941 18.6035 18.9941C18.4668 18.9941 18.3398 18.9355 18.2422 18.8379L17.8711 18.4277V21.0938C17.8711 21.3672 17.6562 21.582 17.3828 21.582H16.1133C15.8398 21.582 15.625 21.3672 15.625 21.0938V15.2344C15.625 14.9609 15.8398 14.7461 16.1133 14.7461H17.334C17.4707 14.7461 17.5977 14.8047 17.6855 14.8926L18.6035 15.8496L19.5215 14.8926C19.6094 14.7949 19.7363 14.7461 19.873 14.7461H21.0938C21.3672 14.7461 21.582 14.9609 21.582 15.2344V21.0938C21.582 21.3672 21.3672 21.582 21.0938 21.582ZM20.3125 20.6055H20.6055V15.7227H20.0781L18.9551 16.8945C18.8672 16.9922 18.7402 17.041 18.6035 17.041C18.4668 17.041 18.3398 16.9824 18.252 16.8945L17.1289 15.7227H16.6016V20.6055H16.8945V17.1777C16.8945 16.9727 17.0215 16.7969 17.207 16.7187C17.3926 16.6504 17.6074 16.6992 17.7441 16.8457L18.6035 17.7832L19.4629 16.8457C19.5996 16.6992 19.8145 16.6504 20 16.7187C20.1855 16.7871 20.3125 16.9727 20.3125 17.1777V20.6055Z" fill="#57130F"/>
<path d="M33.8867 21.582H32.6172C32.3438 21.582 32.1289 21.3672 32.1289 21.0938V18.4277L31.7578 18.8379C31.6699 18.9355 31.5332 18.9941 31.3965 18.9941C31.2598 18.9941 31.1328 18.9355 31.0352 18.8379L30.6641 18.4277V21.0938C30.6641 21.3672 30.4492 21.582 30.1758 21.582H28.9062C28.6328 21.582 28.418 21.3672 28.418 21.0938V15.2344C28.418 14.9609 28.6328 14.7461 28.9062 14.7461H30.127C30.2637 14.7461 30.3906 14.8047 30.4785 14.8926L31.3965 15.8496L32.3145 14.8926C32.4023 14.7949 32.5293 14.7461 32.666 14.7461H33.8867C34.1602 14.7461 34.375 14.9609 34.375 15.2344V21.0938C34.375 21.3672 34.1602 21.582 33.8867 21.582ZM33.1055 20.6055H33.3984V15.7227H32.8711L31.748 16.8945C31.6602 16.9922 31.5332 17.041 31.3965 17.041C31.2598 17.041 31.1328 16.9824 31.0449 16.8945L29.9219 15.7227H29.3945V20.6055H29.6875V17.1777C29.6875 16.9727 29.8145 16.7969 30 16.7187C30.1855 16.6406 30.4004 16.6992 30.5371 16.8457L31.3965 17.7832L32.2559 16.8457C32.3926 16.6992 32.6074 16.6504 32.793 16.7187C32.9785 16.7871 33.1055 16.9727 33.1055 17.1777V20.6055Z" fill="#57130F"/>
</svg>
