<svg width="1440" height="290" viewBox="0 0 1440 290" fill="none" xmlns="http://www.w3.org/2000/svg">
<rect width="1440" height="290" fill="#8F4096"/>
<path d="M985 116C968.431 116 955 129.726 955 146.658C955 162.027 966.079 174.719 980.515 176.936V154.782H973.093V146.722H980.515V141.36C980.515 132.482 984.748 128.585 991.969 128.585C995.428 128.585 997.255 128.846 998.122 128.965V135.998H993.196C990.13 135.998 989.059 138.969 989.059 142.317V146.722H998.044L996.826 154.782H989.062V177C1003.71 174.974 1015 162.177 1015 146.658C1015 129.726 1001.57 116 985 116Z" fill="white"/>
<path d="M1090.33 123C1087.86 124.379 1082.9 126.259 1079.99 126.801C1079.91 126.822 1079.84 126.849 1079.75 126.87C1077.18 124.481 1073.65 123 1069.75 123C1061.88 123 1055.5 129.003 1055.5 136.406C1055.5 136.797 1055.46 137.515 1055.5 137.896C1044.88 137.896 1036.8 132.664 1031.01 125.979C1030.38 127.469 1030.1 129.822 1030.1 132.033C1030.1 136.207 1033.57 140.306 1038.97 142.847C1037.97 143.089 1036.88 143.261 1035.74 143.261C1033.9 143.261 1031.95 142.806 1030.17 141.423C1030.17 141.474 1030.17 141.522 1030.17 141.575C1030.17 147.408 1036.75 151.38 1042.6 152.485C1041.41 153.143 1039.02 153.209 1037.85 153.209C1037.03 153.209 1034.11 152.854 1033.33 152.717C1034.96 157.499 1040.83 160.186 1046.43 160.282C1042.05 163.511 1039.01 164.709 1030.05 164.709H1027C1032.66 168.123 1039.87 170.67 1047.1 170.67C1070.62 170.67 1084 153.799 1084 137.896C1084 137.64 1083.99 137.103 1083.98 136.564C1083.98 136.511 1084 136.46 1084 136.406C1084 136.326 1083.97 136.248 1083.97 136.168C1083.96 135.763 1083.95 135.384 1083.94 135.188C1086.44 133.49 1088.61 131.372 1090.33 128.958C1088.03 129.918 1085.57 130.561 1082.98 130.853C1085.62 129.364 1089.38 125.812 1090.33 123Z" fill="white"/>
<path d="M1124.67 116C1115.46 116 1108 123.588 1108 132.944V160.056C1108 169.412 1115.46 177 1124.67 177H1151.33C1160.54 177 1168 169.412 1168 160.056V132.944C1168 123.588 1160.54 116 1151.33 116H1124.67ZM1158 122.778C1159.84 122.778 1161.33 124.296 1161.33 126.167C1161.33 128.037 1159.84 129.556 1158 129.556C1156.16 129.556 1154.67 128.037 1154.67 126.167C1154.67 124.296 1156.16 122.778 1158 122.778ZM1138 129.556C1147.2 129.556 1154.67 137.143 1154.67 146.5C1154.67 155.857 1147.2 163.444 1138 163.444C1128.8 163.444 1121.33 155.857 1121.33 146.5C1121.33 137.143 1128.8 129.556 1138 129.556ZM1138 136.333C1135.35 136.333 1132.8 137.404 1130.93 139.311C1129.05 141.218 1128 143.804 1128 146.5C1128 149.196 1129.05 151.782 1130.93 153.689C1132.8 155.596 1135.35 156.667 1138 156.667C1140.65 156.667 1143.2 155.596 1145.07 153.689C1146.95 151.782 1148 149.196 1148 146.5C1148 143.804 1146.95 141.218 1145.07 139.311C1143.2 137.404 1140.65 136.333 1138 136.333Z" fill="white"/>
<path d="M1238.33 116H1191.67C1187.98 116 1185 119.033 1185 122.778V170.222C1185 173.967 1187.98 177 1191.67 177H1238.33C1242.02 177 1245 173.967 1245 170.222V122.778C1245 119.033 1242.02 116 1238.33 116ZM1205 163.444H1196.59V139.722H1205V163.444ZM1200.65 135.374C1198.08 135.374 1196.36 133.632 1196.36 131.308C1196.36 128.983 1198.07 127.241 1200.93 127.241C1203.5 127.241 1205.22 128.983 1205.22 131.308C1205.22 133.632 1203.5 135.374 1200.65 135.374ZM1235 163.444H1226.86V150.479C1226.86 146.893 1224.69 146.066 1223.88 146.066C1223.06 146.066 1220.35 146.619 1220.35 150.479C1220.35 151.031 1220.35 163.444 1220.35 163.444H1211.94V139.722H1220.35V143.033C1221.43 141.102 1223.6 139.722 1227.67 139.722C1231.74 139.722 1235 143.033 1235 150.479V163.444Z" fill="white"/>
</svg>
